<svg width="56" height="56" viewBox="0 0 56 56" fill="none" xmlns="http://www.w3.org/2000/svg">
<g id="Frame 1000001449">
<circle id="Ellipse 34" cx="28.2881" cy="27.7881" r="27.3176" fill="white"/>
<g id="&#240;&#159;&#166;&#134; emoji &#34;party popper&#34;">
<path id="Vector" d="M13.5088 43.5484C14.102 44.1913 16.5456 43.0702 18.4743 42.1712C19.9195 41.4995 25.703 39.1265 28.5777 37.8956C29.3539 37.5637 30.4829 37.1299 31.2957 36.061C32.017 35.1097 33.93 31.0694 30.0778 26.9768C26.1682 22.8214 22.1409 23.9687 20.6356 25.035C19.7496 25.6622 19.0283 27.0761 18.7043 27.7948C17.3348 30.8316 15.3826 36.3955 14.5881 38.5829C14.0053 40.1954 12.9208 42.9108 13.5088 43.5484Z" fill="#FFC107"/>
<g id="Group">
<path id="Vector_2" d="M18.3187 28.7088C18.3553 29.1635 18.4468 29.9031 18.7604 31.3274C18.9747 32.3049 19.3249 33.3293 19.6098 34.0062C20.4644 36.042 21.6639 36.8627 22.8791 37.5212C24.9437 38.6398 26.3472 38.8489 26.3472 38.8489L24.6641 39.5362C24.6641 39.5362 23.6449 39.3245 22.2545 38.6398C20.9295 37.9864 19.5497 36.881 18.5409 34.717C18.1044 33.7788 17.8509 32.8694 17.7046 32.1481C17.5243 31.2543 17.4955 30.7473 17.4955 30.7473L18.3187 28.7088Z" fill="#FF8F00"/>
<path id="Vector_3" d="M16.2511 34.0088C16.2511 34.0088 16.4602 35.7049 17.861 37.8453C19.5022 40.3489 21.7942 40.7592 21.7942 40.7592L20.2706 41.3865C20.2706 41.3865 18.5692 40.8664 16.9515 38.6581C15.9427 37.2808 15.6605 35.6343 15.6605 35.6343L16.2511 34.0088Z" fill="#FF8F00"/>
<path id="Vector_4" d="M14.8009 38.028C14.8009 38.028 15.1824 39.4915 16.0187 40.5839C17.0144 41.888 18.2819 42.2669 18.2819 42.2669L17.1137 42.7844C17.1137 42.7844 16.2278 42.5988 15.2582 41.3705C14.5212 40.4375 14.3121 39.366 14.3121 39.366L14.8009 38.028Z" fill="#FF8F00"/>
</g>
<path id="Vector_5" opacity="0.44" d="M14.1654 41.7444C14.1131 41.6268 14.1131 41.4935 14.168 41.3785L20.8243 27.5745L21.9194 31.6906L14.9154 41.8071C14.7272 42.0894 14.3039 42.0528 14.1654 41.7444Z" fill="#FFFDE7"/>
<path id="Vector_6" d="M22.4486 33.073C25.5586 36.7109 29.0997 36.2562 30.2784 35.3363C31.4597 34.4137 32.3926 31.2436 29.2957 27.6659C26.0499 23.9182 22.3754 24.9871 21.5261 25.7973C20.6767 26.6074 19.5948 29.7357 22.4486 33.073Z" fill="url(#paint0_linear_2_2963)"/>
<path id="Vector_7" d="M33.1282 34.5709C31.994 33.6196 31.3903 33.7895 30.5802 34.1267C29.5348 34.5605 27.891 34.8819 25.6591 34.1267L26.3308 32.5089C27.6558 32.9558 28.6149 32.7389 29.4433 32.2502C30.5096 31.623 31.9679 30.7632 34.2363 32.6684C35.1824 33.4628 36.152 33.9908 36.8628 33.7503C37.3803 33.5778 37.6547 32.8069 37.7932 32.1927C37.8063 32.1378 37.8272 31.981 37.8428 31.8425C37.9683 30.8834 38.1774 28.8136 39.7193 27.7551C41.3683 26.6235 43.101 26.6235 43.101 26.6235L43.4146 29.7387C42.6176 29.6211 42.0635 29.7832 41.5957 30.0419C39.8343 31.0219 41.3683 34.7852 38.6269 36.0501C35.9899 37.2758 33.8339 35.1616 33.1282 34.5709Z" fill="#03A9F4"/>
<path id="Vector_8" d="M23.4289 30.5984L22.2947 29.5818C24.3776 27.2559 23.8288 25.5467 23.4289 24.3027C23.3479 24.0518 23.2721 23.814 23.2224 23.5866C23.0447 22.7817 23.0081 22.0813 23.063 21.4698C22.2633 20.474 21.9105 19.4313 21.887 19.3607C21.4009 17.8894 21.7668 16.4546 22.6057 15.1087C24.3018 12.3777 27.3725 12.3777 27.3725 12.3777L28.397 15.1192C27.6182 15.0878 25.0649 15.127 24.2809 16.3631C23.2904 17.9207 23.9411 18.8825 23.9882 18.9922C24.179 18.744 24.3723 18.5453 24.5448 18.3912C25.7967 17.2805 26.8838 17.121 27.5764 17.1838C28.3552 17.2543 29.0608 17.6463 29.5652 18.2892C30.1166 18.9949 30.344 19.9122 30.1689 20.7458C29.999 21.5586 29.4581 22.2459 28.6453 22.6824C27.2262 23.4455 26.0449 23.341 25.2531 23.077C25.2583 23.0953 25.2609 23.1162 25.2661 23.1345C25.2949 23.2652 25.3524 23.4481 25.4203 23.6598C25.8829 25.092 26.7427 27.3656 23.4289 30.5984ZM25.3498 20.7903C25.5013 20.9 25.6608 20.9915 25.8254 21.0568C26.3742 21.2764 26.9727 21.2032 27.6522 20.8373C28.052 20.623 28.0991 20.393 28.1148 20.3172C28.1618 20.0899 28.0834 19.7998 27.9135 19.5829C27.7646 19.3921 27.5921 19.2928 27.3856 19.2719C26.9936 19.2379 26.4631 19.4862 25.9326 19.9592C25.6791 20.1866 25.4857 20.4662 25.3498 20.7903Z" fill="#F44336"/>
<path id="Vector_9" d="M27.9672 31.0242L26.3443 30.9798C26.3443 30.9798 27.1153 26.6259 29.6111 25.8941C30.0789 25.7582 30.5911 25.6197 31.106 25.5439C31.4117 25.4969 31.8952 25.4263 32.133 25.3374C32.1879 24.9271 32.0154 24.4045 31.822 23.8112C31.6705 23.3513 31.5136 22.8782 31.43 22.3608C31.268 21.352 31.5372 20.4608 32.1879 19.8467C32.9824 19.1018 34.2656 18.864 35.7134 19.1933C36.5392 19.3815 37.1482 19.7866 37.6839 20.142C38.4497 20.6516 38.8965 20.9103 39.8321 20.2805C40.9638 19.5174 39.4846 16.5302 38.6979 14.8054L41.6328 13.5823C42.0274 14.4447 43.9326 18.8823 42.6755 21.4147C42.2522 22.2667 41.523 22.8312 40.5665 23.0429C38.4862 23.5081 37.2684 22.6979 36.3798 22.1073C35.9591 21.8276 35.5906 21.6081 35.1907 21.4931C32.4127 20.7012 36.291 24.7886 34.4746 26.6259C33.3849 27.7261 30.7218 28.0162 30.5493 28.058C28.8349 28.4709 27.9672 31.0242 27.9672 31.0242Z" fill="#F48FB1"/>
<path id="Vector_10" d="M23.0596 21.4697C23.01 22.0447 22.9864 22.387 23.1354 23.1345C23.8541 23.6624 25.4195 23.6624 25.4195 23.6624C25.3516 23.4507 25.2915 23.2678 25.2653 23.1371C25.2601 23.1188 25.2575 23.0979 25.2523 23.0796C23.6607 22.2851 23.0596 21.4697 23.0596 21.4697Z" fill="#C92B27"/>
<path id="Vector_11" d="M19.8039 24.0442L17.1017 22.7192L18.4476 20.7748L20.5671 22.1782L19.8039 24.0442Z" fill="#FFC107"/>
<path id="Vector_12" d="M15.8203 20.3749C14.4404 20.1894 13.0343 19.0186 12.8802 18.8853L14.2365 17.2937C14.6468 17.6413 15.5171 18.2241 16.0999 18.3025L15.8203 20.3749Z" fill="#FB8C00"/>
<path id="Vector_13" d="M18.2579 16.8909L16.2717 16.2402C16.4991 15.545 16.5592 14.795 16.4416 14.071L18.5062 13.7391C18.676 14.7897 18.5898 15.8795 18.2579 16.8909Z" fill="#03A9F4"/>
<path id="Vector_14" d="M30.6596 15.3374L32.702 14.8906L33.2918 17.5866L31.2493 18.0334L30.6596 15.3374Z" fill="#FB8C00"/>
<path id="Vector_15" d="M35.7256 15.9766L34.2882 14.4582C35.0409 13.7447 35.2134 12.8117 35.2134 12.8013L37.278 13.1384C37.2519 13.303 36.9879 14.7822 35.7256 15.9766Z" fill="#FFC107"/>
<path id="Vector_16" d="M36.5245 24.0289L38.3504 23.4582L38.9741 25.4538L37.1481 26.0245L36.5245 24.0289Z" fill="#FB8C00"/>
<path id="Vector_17" d="M37.0559 40.8715L34.9782 40.6258C35.0671 39.8862 34.5157 38.9794 34.3641 38.7781L36.0367 37.5237C36.1621 37.6883 37.2519 39.1963 37.0559 40.8715Z" fill="#F44336"/>
<path id="Vector_18" d="M43.0215 38.2216C42.24 38.104 41.4403 38.0569 40.6511 38.0857L40.5805 35.9949C41.4978 35.9636 42.4256 36.0159 43.3324 36.1544L43.0215 38.2216Z" fill="#FB8C00"/>
<path id="Vector_19" d="M40.211 41.0997L41.68 39.6119L43.7015 41.6078L42.2325 43.0956L40.211 41.0997Z" fill="#F48FB1"/>
<path id="Vector_20" d="M35.893 27.8837L37.4035 29.6108L35.6764 31.1213L34.1659 29.3942L35.893 27.8837Z" fill="#F44336"/>
</g>
</g>
<defs>
<linearGradient id="paint0_linear_2_2963" x1="31.0034" y1="27.493" x2="23.224" y2="32.1607" gradientUnits="userSpaceOnUse">
<stop offset="0.0235" stop-color="#8F4700"/>
<stop offset="1" stop-color="#703E2D"/>
</linearGradient>
</defs>
</svg>
