<svg width="73" height="72" viewBox="0 0 73 72" fill="none" xmlns="http://www.w3.org/2000/svg">
<g id="Group 10652">
<g id="Group 1106">
<circle id="Ellipse 1941" cx="36.5" cy="36" r="36" fill="#D3E5FF"/>
<g id="&#240;&#159;&#166;&#134; emoji &#34;wastebasket&#34;">
<path id="Vector" d="M36.2345 48.3824C30.1836 48.3824 24.052 50.3591 24.0117 54.151C23.931 57.9832 30.1029 60.0002 36.2345 60.0002C42.3661 60.0002 48.538 57.9832 48.4573 54.151C48.3766 50.3187 42.245 48.3421 36.2345 48.3824Z" fill="#424242"/>
<path id="Vector_2" d="M54.0236 19.2978L54.7497 18.5314C54.3463 18.1683 53.9026 17.8456 53.3781 17.5632L52.8941 18.0876L52.4503 18.5314L50.514 16.5951L50.272 16.353L50.4334 16.1917C49.3039 15.7883 48.0937 15.4252 46.7222 15.1025L46.8432 15.2235L47.9727 16.353L46.0364 18.37L44.0598 16.3934L45.512 14.9008L45.5523 14.8605C45.1489 14.7798 44.7859 14.6991 44.3825 14.6588C44.1404 14.6185 43.8581 14.5781 43.616 14.5378L43.0109 15.2235L42.1235 14.2957C40.7519 14.1344 39.3804 14.0537 37.9282 14.0134L36.597 15.3849L35.2658 14.0134C33.8943 14.0537 32.5631 14.1344 31.2722 14.2554L30.183 15.3446L29.3359 14.4974C28.6905 14.5781 28.045 14.6991 27.3996 14.8202H27.3593L29.0132 16.5144L26.8752 18.6927L24.8582 16.5547L26.3508 15.0622L26.3911 15.0218C24.8582 15.3446 23.4867 15.748 22.2362 16.232L22.3975 16.3934L22.5589 16.5547L20.5823 18.5314L19.8965 17.8053L19.6141 17.4825C19.0897 17.8053 18.6056 18.128 18.2023 18.4507L18.6863 18.9348L19.4124 19.7012L18.2426 20.8711C18.2829 20.9517 18.3233 21.0727 18.3636 21.1534C18.4443 21.2341 18.4846 21.3551 18.5653 21.4358C18.7267 21.6778 18.9687 21.9199 19.2107 22.1619L20.5016 20.8307L22.5589 22.9687L21.7925 23.7351C22.1958 23.8965 22.5992 24.0579 23.0026 24.2192C23.164 24.2596 23.3253 24.3402 23.4867 24.3806L23.6884 24.1385L24.0918 24.5823C25.6247 25.0663 27.1979 25.3891 28.7308 25.6311L30.0217 24.2999L31.7159 26.1152C32.5631 26.1958 33.3698 26.2362 34.1766 26.2765H34.6204L36.5566 24.2596L38.4526 26.2362C39.3401 26.1958 40.2275 26.1555 41.0746 26.0748L42.8899 24.1789L44.3421 25.6714C46.1171 25.3891 47.7306 24.9857 49.1425 24.5016L49.5056 24.1385L49.7073 24.3402C50.3124 24.1385 50.8368 23.8965 51.3208 23.6141L50.6351 22.9284L52.5714 20.8711L53.6202 21.9199C53.9832 21.5165 54.1849 21.1534 54.2656 20.9114C54.2656 20.8711 54.3059 20.8307 54.3059 20.7904C54.3059 20.75 54.3059 20.75 54.3059 20.7097L54.3463 20.629C54.3463 20.5887 54.3463 20.5483 54.3463 20.508C54.3463 20.4273 54.3463 20.387 54.3463 20.3466L53.6605 19.6609L54.0236 19.2978ZM39.8645 14.3764L41.8814 16.3934L39.7435 18.612L37.7265 16.5547L39.8645 14.3764ZM33.3698 14.4168L35.4271 16.5547L33.3698 18.6524L31.3125 16.5144L33.3698 14.4168ZM23.7691 21.8795L21.7118 19.7416L23.6884 17.7649L25.7457 19.9029L23.7691 21.8795ZM26.9559 25.2277L24.8986 23.0494L26.8752 21.0324L28.9325 23.2107L26.9559 25.2277ZM28.0451 19.8626L30.183 17.6842L32.2403 19.8222L30.1024 22.0006L28.0451 19.8626ZM33.2488 25.3084L31.2319 23.2107L33.3698 21.0324L35.3868 23.1301L33.2488 25.3084ZM34.5397 19.8222L36.597 17.7246L38.614 19.7819L36.5566 21.9199L34.5397 19.8222ZM39.6628 25.1067L37.6861 23.0897L39.7435 20.9517L41.7201 22.9687L39.6628 25.1067ZM42.8496 21.7989L40.873 19.7819L43.0109 17.5632L44.9876 19.5399L42.8496 21.7989ZM46.1574 25.1874L43.9791 22.9687L46.1171 20.75L48.255 22.9284L46.1574 25.1874ZM49.4249 21.7585L47.2466 19.5802L49.1829 17.5229L51.3612 19.7012L49.4249 21.7585Z" fill="url(#paint0_linear_2_4034)"/>
<path id="Vector_3" d="M56.7671 19.9432C56.7671 19.8222 56.7268 19.6608 56.6865 19.4995C56.6461 19.4188 56.6461 19.3381 56.6058 19.2171C56.5654 19.1364 56.5251 19.0154 56.4848 18.9347C56.162 18.0876 55.3956 17.0791 54.3064 16.232C53.2173 15.3849 51.8054 14.6991 50.1515 14.094C48.4976 13.4889 46.6016 13.0452 44.5443 12.6821C42.487 12.3594 40.228 12.1174 37.8076 12.0367C35.4276 11.956 32.9266 11.9964 30.3045 12.2787C27.6825 12.5611 25.0201 13.0452 22.3173 13.973C20.9861 14.4571 19.6146 15.0218 18.3238 15.9093C17.6783 16.353 17.0732 16.8774 16.5085 17.6035C16.3471 17.7649 16.2664 17.9666 16.1454 18.1683C16.0244 18.37 15.9034 18.5717 15.8227 18.8137L15.7017 19.1768C15.6614 19.2978 15.621 19.4591 15.5807 19.5802L15.5403 19.7819V19.9029L15.5 20.1449V20.2659V20.3063V20.3869V20.5886C15.5 20.7097 15.5 20.8307 15.5403 20.9517C15.5807 21.0727 15.5807 21.1937 15.621 21.3148L15.7017 21.6778C15.7824 21.9198 15.8631 22.1215 15.9841 22.3636C16.1051 22.5653 16.1858 22.767 16.3471 22.9687C16.8312 23.6948 17.4363 24.2999 18.0414 24.7839C18.2027 24.905 18.3641 25.026 18.4851 25.1066C19.1709 29.5843 19.8163 34.1023 20.5424 38.701L22.9628 54.1913C22.9628 54.635 23.0838 55.0788 23.2452 55.4418C23.4468 55.8856 23.6889 56.2083 23.9309 56.531C24.4553 57.1361 25.0201 57.5395 25.5848 57.8622C26.7143 58.5479 27.8842 58.9513 29.054 59.2741C30.2239 59.5968 31.434 59.7985 32.6039 59.9598C33.209 60.0405 33.8141 60.0808 34.3788 60.1212C34.6612 60.1212 34.9839 60.1615 35.2663 60.1615H36.1537C38.5338 60.1615 40.9138 59.9195 43.2938 59.2741C44.4636 58.9513 45.6335 58.5076 46.763 57.8622C47.3277 57.4991 47.8925 57.0957 48.4169 56.531C48.6589 56.2486 48.901 55.8856 49.1027 55.4418C49.264 55.0788 49.385 54.635 49.385 54.1913L51.6844 38.822C52.3701 34.183 53.0156 29.6247 53.7013 25.1066C54.0241 24.905 54.3064 24.6629 54.5888 24.4612C55.6376 23.5738 56.3637 22.5249 56.5654 21.6375C56.6058 21.5164 56.6461 21.4358 56.6461 21.3148C56.6865 21.1937 56.6865 21.1131 56.6865 20.992C56.6865 20.871 56.7268 20.7903 56.7268 20.7097C56.7268 20.629 56.7268 20.5886 56.7268 20.5483C56.7268 20.3869 56.7268 20.3063 56.7268 20.3063V20.2256C56.8075 20.3063 56.8075 20.1853 56.7671 19.9432ZM49.4657 38.4993L48.9816 41.5248L47.4891 39.9112L49.6271 37.5312C49.5867 37.8942 49.5061 38.1766 49.4657 38.4993ZM29.7801 56.8134C29.3767 56.6923 28.9733 56.5713 28.6103 56.4503L27.1177 54.7964L29.4171 52.2954L31.6357 54.7561C31.6761 54.7561 29.7801 56.8537 29.7801 56.8134ZM21.9543 29.1809L21.3895 29.7457C21.3089 29.2616 21.2282 28.7372 21.1475 28.2531C21.1072 28.2531 21.9543 29.1809 21.9543 29.1809ZM23.0435 30.3911L25.2218 32.7711L22.9224 35.1915L22.156 34.3444L21.7123 31.7626L23.0435 30.3911ZM25.2218 28.1321C25.5042 28.2128 25.7865 28.2935 26.0689 28.3338C26.7143 28.4951 27.3194 28.6162 27.9649 28.7372L28.5296 29.3423L26.432 31.5609L24.2536 29.1809L25.2218 28.1321ZM36.3151 30.4718L38.3724 32.6904L36.1134 35.1108L34.0561 32.8921L36.3151 30.4718ZM43.9392 56.41C43.5358 56.5713 43.1728 56.6923 42.729 56.8134L40.9541 54.8771L43.2131 52.376L45.4318 54.7561L43.9392 56.41ZM26.2303 38.7817L24.0519 36.4017L26.3513 33.9813L28.5296 36.321L26.2303 38.7817ZM29.6591 37.5715L31.7164 39.8305L29.4171 42.2912L27.3194 40.0322L29.6591 37.5715ZM26.1899 41.2424L28.2876 43.5014L26.0689 45.8814L24.0116 43.5821C23.9713 43.6224 26.1899 41.2424 26.1899 41.2424ZM29.4171 44.7922L31.7164 47.2933L29.4977 49.7136L27.2387 47.2126L29.4171 44.7922ZM30.5869 43.5417L32.8862 41.081L35.1453 43.5821L32.8862 46.0428C32.8862 46.0024 30.5869 43.5417 30.5869 43.5417ZM36.3151 42.2912L34.0158 39.8305L36.1134 37.5715L38.3724 40.0322C38.4127 40.0322 36.3151 42.2912 36.3151 42.2912ZM39.5422 41.2827L41.7609 43.7031L39.6633 46.0024L37.4446 43.5821L39.5422 41.2827ZM36.3151 44.7922L38.5338 47.2126L36.2748 49.7136L34.0561 47.2933C34.0157 47.2933 36.3151 44.7922 36.3151 44.7922ZM39.7036 48.5035L42.0433 51.0852L39.7843 53.5862L37.4043 51.0045C37.4446 51.0045 39.7036 48.5035 39.7036 48.5035ZM43.2131 49.7943L40.8734 47.2529L42.9711 44.9536L45.3108 47.495L43.2131 49.7943ZM40.7121 40.0322L42.9711 37.5715L45.1897 39.9515L42.9307 42.4122L40.7121 40.0322ZM44.1006 36.321L46.2789 33.9813L48.4976 36.321L46.3192 38.701L44.1006 36.321ZM42.9307 35.1108L40.6717 32.6904L42.8501 30.3508L45.1091 32.7711C45.0687 32.7308 42.9307 35.1108 42.9307 35.1108ZM41.8012 36.321L39.5422 38.7817L37.2832 36.321L39.5422 33.9006L41.8012 36.321ZM34.9839 36.321L32.8862 38.58L30.8289 36.321L32.9266 34.1023L34.9839 36.321ZM29.6591 35.1108L27.4808 32.7711L29.5784 30.5525L31.7567 32.8921L29.6591 35.1108ZM22.8821 37.6522L25.0604 40.0322L23.4065 41.7668L22.8418 38.3783C22.8014 38.1766 22.7611 37.9749 22.7611 37.8135C22.7207 37.7732 22.8821 37.6522 22.8821 37.6522ZM24.8587 47.2126L24.3747 47.6967L24.173 46.4462L24.8587 47.2126ZM24.7377 49.8347L25.9882 48.4631L28.2472 51.0045L25.9479 53.5055L25.2218 52.6584L24.7377 49.8347ZM30.6272 51.0045L32.8862 48.5438L35.1049 51.0045L32.8459 53.4652L30.6272 51.0045ZM36.2748 52.2954L38.6548 54.8771L36.3958 57.3781L34.0561 54.7561C34.0157 54.7561 36.2748 52.2954 36.2748 52.2954ZM39.8246 56.1679L40.7928 57.2571C40.0666 57.3781 39.3405 57.4588 38.6144 57.5395C38.6144 57.4991 39.8246 56.1679 39.8246 56.1679ZM46.6016 53.4652L44.4233 51.0852L46.5209 48.7455L47.6504 49.996L47.2067 52.8198C47.1664 52.8198 46.6016 53.4652 46.6016 53.4652ZM47.6101 47.495L48.0942 46.9706L47.9328 47.858L47.6101 47.495ZM48.6186 43.7838L46.4403 46.2041L44.1006 43.6627L46.3596 41.1617L48.6589 43.6224L48.6186 43.7838ZM49.5867 35.1108L47.3681 32.7711L49.6271 30.3104L50.6759 31.3996C50.5145 32.4484 50.3532 33.4972 50.1515 34.546C50.1515 34.5057 49.5867 35.1108 49.5867 35.1108ZM50.7162 29.1002L51.0793 28.6968C51.0389 28.8985 50.9986 29.1406 50.9583 29.3423C50.9986 29.3423 50.7162 29.1002 50.7162 29.1002ZM49.5464 27.8901L49.143 27.4463C49.5867 27.285 49.9901 27.1236 50.3935 26.9623C50.3935 27.0026 49.5464 27.8901 49.5464 27.8901ZM47.4084 28.0111L48.4572 29.1002L46.1982 31.5206L43.9392 29.1002L44.3023 28.6968C44.4636 28.6565 44.625 28.6162 44.8267 28.6162C45.7142 28.4548 46.6016 28.2531 47.4084 28.0111ZM41.6399 29.1406L39.5019 31.4399L37.6059 29.423H37.848C39.1792 29.3826 40.4297 29.3019 41.6399 29.1406ZM34.0561 29.423C34.3788 29.423 34.6612 29.423 34.9436 29.4633L32.9266 31.6416L30.7483 29.3019L30.9096 29.1406C31.9584 29.2616 33.0476 29.3826 34.0561 29.423ZM23.0838 27.9707L22.4384 27.2446C22.8014 27.3656 23.1241 27.4867 23.4468 27.6077L23.0838 27.9707ZM31.7567 57.2571L32.8459 56.0469L34.1771 57.5395C33.7737 57.4991 33.3703 57.4588 32.9266 57.4184C32.5232 57.3781 32.1198 57.3378 31.7567 57.2571ZM54.3468 20.629L54.3064 20.6693V20.75C54.3064 20.75 54.2661 20.8307 54.2661 20.871C54.1451 21.2341 53.782 21.8392 52.9752 22.4846C52.1684 23.13 50.9583 23.7351 49.4657 24.2595C47.9732 24.7839 46.1982 25.2277 44.2216 25.51C42.245 25.8328 40.0666 25.9941 37.7673 26.0748C37.2026 26.0748 36.5975 26.0748 36.0327 26.1151C35.71 26.1151 35.4276 26.1151 35.1049 26.1151C34.8225 26.1151 34.4998 26.1151 34.2174 26.1151C33.0073 26.0748 31.7567 25.9941 30.5062 25.8328C28.0052 25.5504 25.4638 25.0663 23.0435 24.2192C21.8333 23.7754 20.7038 23.251 19.7356 22.5653C19.2516 22.2426 18.8482 21.8392 18.5658 21.4358C18.4851 21.3551 18.4448 21.2341 18.3641 21.1534C18.3238 21.0727 18.2431 20.9517 18.2431 20.871L18.2027 20.7097L18.1624 20.5886C18.1624 20.5483 18.1624 20.508 18.1624 20.4676V20.3869V20.3466V20.1853C18.1624 20.1449 18.1624 20.1046 18.1624 20.0642V20.0239C18.1624 19.9836 18.1624 19.9836 18.1624 19.9432L18.2027 19.7819C18.2431 19.7012 18.2834 19.5802 18.3238 19.4591C18.4044 19.3785 18.4448 19.2574 18.5254 19.1364C18.8078 18.733 19.2516 18.3296 19.7356 17.9666C20.7038 17.2405 21.8736 16.6757 23.0435 16.1917C24.2133 15.7076 25.5042 15.3445 26.7547 15.0622C28.0052 14.7798 29.2557 14.5377 30.5062 14.3764C33.0476 14.0537 35.468 13.9327 37.7673 14.0133C40.0666 14.094 42.245 14.2957 44.2216 14.6588C46.1982 15.0218 47.9732 15.5059 49.4657 16.111C50.9583 16.6757 52.1684 17.3615 52.9752 18.0473C53.782 18.733 54.1854 19.3381 54.3064 19.7415C54.4274 20.0642 54.3871 20.2659 54.4274 20.3063V20.508C54.3871 20.5483 54.3871 20.5886 54.3468 20.629Z" fill="url(#paint1_linear_2_4034)"/>
<path id="Vector_4" opacity="0.2" d="M35.9517 13.2873C36.5568 13.2873 37.2022 13.2873 37.8477 13.3277C40.0663 13.4083 42.285 13.61 44.3826 13.9731C46.3996 14.3362 48.2552 14.7799 49.7881 15.3446C51.3613 15.9094 52.6522 16.5952 53.6607 17.3213C54.6692 18.0877 55.2339 18.9348 55.4356 19.4592L55.5163 19.7013L55.5566 19.903C55.597 20.0643 55.597 20.1047 55.597 20.145V20.1854L55.6373 20.5081V20.7501V20.8308L55.597 21.0325C55.597 21.1132 55.5566 21.1535 55.5566 21.2342L55.5163 21.3149L55.4759 21.5166C55.3146 22.041 54.8305 22.9284 53.8624 23.7352C53.6203 23.9369 53.3783 24.1386 53.0959 24.3403C52.8135 24.542 52.6522 24.8244 52.5715 25.1471C52.3698 26.4379 52.2085 27.7691 52.0068 29.06C51.563 32.2468 51.079 35.5546 50.5545 38.8625L48.2552 54.2317V54.3528C48.2552 54.6351 48.1745 54.9175 48.0535 55.1595C47.9325 55.4419 47.7711 55.684 47.5694 55.926C47.1257 56.4101 46.6416 56.7731 46.1979 57.0152C45.3104 57.5396 44.3019 57.943 43.0111 58.306C40.9538 58.8708 38.7351 59.1531 36.1937 59.1531C36.1131 59.1531 35.9921 59.1531 35.9114 59.1531C35.7097 59.1531 35.5483 59.1531 35.3466 59.1531C35.0642 59.1531 34.7415 59.1128 34.4995 59.1128C33.8137 59.0725 33.2893 59.0321 32.7649 58.9514C31.5547 58.7901 30.4656 58.5884 29.3764 58.306C28.0855 57.943 27.0771 57.5396 26.1896 57.0152C25.7862 56.7328 25.2618 56.4101 24.8181 55.926C24.6164 55.684 24.455 55.4419 24.334 55.1595C24.213 54.9175 24.1726 54.6351 24.1323 54.3528C24.1323 54.3124 24.1323 54.2721 24.1323 54.2317L21.7119 38.7414C21.3489 35.3933 20.8245 32.0048 20.3404 28.7776C20.1387 27.5674 19.9773 26.3573 19.7756 25.1471C19.7353 24.8244 19.5336 24.542 19.2916 24.3403C19.1302 24.2596 19.0092 24.1386 18.8882 24.0176C18.2427 23.5335 17.799 23.0494 17.436 22.4847L17.3956 22.4444C17.3553 22.3637 17.2746 22.283 17.2343 22.162L17.1536 22.041C17.1536 22.0006 17.1132 21.9603 17.1132 21.9199C17.0729 21.7989 16.9922 21.6779 16.9922 21.5972L16.9116 21.2745C16.9116 21.2342 16.9116 21.1535 16.8712 21.0728V20.9921C16.8712 20.9115 16.8712 20.8711 16.8712 20.8308V20.7904V20.6291V20.5484V20.4677V20.4274L16.9116 20.2257V20.145L16.9519 19.9837C16.9519 19.903 16.9922 19.782 17.0326 19.7013L17.1536 19.3786C17.1939 19.2979 17.2343 19.1769 17.3149 19.0559C17.3149 19.0155 17.3553 18.9752 17.3956 18.9348C17.436 18.8945 17.436 18.8542 17.4763 18.8138C17.557 18.6928 17.5973 18.6121 17.678 18.5314C17.678 18.5314 17.678 18.5314 17.7183 18.4911C18.1217 17.9667 18.6058 17.523 19.2512 17.0389C20.5421 16.1514 21.9136 15.5867 22.9221 15.2236C25.1811 14.4572 27.7225 13.8924 30.6269 13.5697C32.2405 13.368 34.0154 13.2873 35.9517 13.2873ZM35.9517 12.0771C34.1768 12.0771 32.3212 12.1578 30.3849 12.3595C27.7628 12.6419 25.1004 13.126 22.3977 14.0538C21.0665 14.5378 19.695 15.1026 18.4041 15.9901C17.7587 16.4338 17.1536 16.9582 16.5888 17.6843C16.4275 17.8457 16.3468 18.0474 16.2258 18.2491C16.1048 18.4508 15.9837 18.6525 15.9031 18.8945L15.782 19.2575C15.7417 19.3786 15.7014 19.5399 15.661 19.6609L15.6207 19.8626V19.9837L15.5804 20.3064V20.4274V20.4677V20.5484V20.7501C15.5804 20.8711 15.5804 20.9921 15.6207 21.1132C15.661 21.2342 15.661 21.3552 15.7014 21.4762L15.782 21.8393C15.8627 22.0813 15.9434 22.283 16.0644 22.525C16.1854 22.7267 16.2661 22.9284 16.4275 23.1301C16.9116 23.8562 17.5166 24.4613 18.1621 24.9454C18.3234 25.0664 18.4848 25.1874 18.6058 25.2681C19.2916 29.7458 19.937 34.2638 20.6631 38.8625L23.0835 54.3528C23.0835 54.7965 23.2045 55.2402 23.3658 55.6033C23.5675 56.047 23.8096 56.3697 24.0516 56.6924C24.576 57.2975 25.1408 57.7009 25.7055 58.0236C26.835 58.7094 28.0049 59.1128 29.1747 59.4355C30.3445 59.7582 31.5547 59.9599 32.7246 60.1213C33.3297 60.202 33.9347 60.2423 34.4995 60.2826C34.7819 60.2826 35.1046 60.323 35.387 60.323H36.2744C38.6544 60.323 41.0345 60.0809 43.4145 59.4355C44.5843 59.1128 45.7542 58.6691 46.8837 58.0236C47.4484 57.6606 48.0132 57.2572 48.5376 56.6924C48.7796 56.4101 49.0217 56.047 49.2233 55.6033C49.3847 55.2402 49.5057 54.7965 49.5057 54.3528L51.8051 38.9835C52.4908 34.3445 53.1363 29.7861 53.822 25.2681C54.1447 25.0664 54.4271 24.8244 54.7095 24.6227C55.7583 23.7352 56.4844 22.6864 56.6861 21.7989C56.7265 21.6779 56.7668 21.5972 56.7668 21.4762C56.8071 21.3552 56.8071 21.2745 56.8071 21.1535C56.8071 21.0325 56.8475 20.9518 56.8475 20.8711C56.8475 20.7904 56.8475 20.7501 56.8475 20.7098C56.8475 20.5484 56.8475 20.4677 56.8475 20.4677V20.387C56.8475 20.387 56.8475 20.266 56.8071 20.024C56.8071 19.903 56.7668 19.7416 56.7265 19.5803C56.6861 19.4996 56.6861 19.4189 56.6458 19.2979C56.6054 19.2172 56.5651 19.0962 56.5248 19.0155C56.202 18.1684 55.4356 17.1599 54.3464 16.3128C53.2573 15.4657 51.8454 14.7395 50.1915 14.1748C48.5779 13.61 46.682 13.126 44.6247 12.7629C42.5674 12.4402 40.3084 12.1982 37.888 12.1175C37.2426 12.0771 36.5971 12.0771 35.9517 12.0771Z" fill="#424242"/>
</g>
</g>
</g>
<defs>
<linearGradient id="paint0_linear_2_4034" x1="36.476" y1="14.0008" x2="36.476" y2="26.3445" gradientUnits="userSpaceOnUse">
<stop offset="0.0475" stop-color="#BDBDBD"/>
<stop offset="0.2569" stop-color="#C3C3C3" stop-opacity="0.7801"/>
<stop offset="0.532" stop-color="#D3D3D3" stop-opacity="0.4913"/>
<stop offset="0.8424" stop-color="#EEEEEE" stop-opacity="0.1654"/>
<stop offset="1" stop-color="white" stop-opacity="0"/>
</linearGradient>
<linearGradient id="paint1_linear_2_4034" x1="36.1468" y1="11.8524" x2="36.1468" y2="59.1046" gradientUnits="userSpaceOnUse">
<stop offset="0.1461" stop-color="#B0BEC5"/>
<stop offset="0.4998" stop-color="#8C9FA8"/>
<stop offset="1" stop-color="#546E7A"/>
</linearGradient>
</defs>
</svg>
